# xmcd
# 
# Track frame offsets:
#     150
#     11935
#     24155
#     33152
#     45492
#     57265
#     66760
#     81490
#     95517
#     107650
#     120400
#     132520
#     143050
#     156127
# 
# Disc length: 2137
# 
# Revision: 2
# Processed by: cddbd v1.5.2PL0 Copyright (c) Steve Scherf et al.
# Submitted via: BonkEnc v1.0.15
# 
DISCID=b408570e
DTITLE=Mike Cross - Creme de la Cross - The Best of the Funny Stuff
DYEAR=1994
DGENRE=Comedy
TTITLE0=Liquor in the Well
TTITLE1=The Lord'll Provide
TTITLE2=Dear Boss
TTITLE3=The Great Strip Poker Massacre
TTITLE4=Mountain Mean
TTITLE5=Elma Turl
TTITLE6=The App. Rap/Grub Springs
TTITLE7=Uncle Josh
TTITLE8=The Scotsman
TTITLE9=Wiskey 'Fore Breakfast/Sailor's Bonnet
TTITLE10=My Spirit's Willing
TTITLE11=Directions
TTITLE12=Granny's Milk Cartons
TTITLE13=The Farewell Toast
EXTD=
EXTT0=
EXTT1=
EXTT2=
EXTT3=
EXTT4=
EXTT5=
EXTT6=
EXTT7=
EXTT8=
EXTT9=
EXTT10=
EXTT11=
EXTT12=
EXTT13=
PLAYORDER=
